<?xml version="1.0" standalone="no"?>
<!DOCTYPE svg PUBLIC "-//W3C//DTD SVG 20010904//EN"
 "http://www.w3.org/TR/2001/REC-SVG-20010904/DTD/svg10.dtd">
<svg version="1.0" xmlns="http://www.w3.org/2000/svg"
width="45"
  viewBox="0 0 500 500"
 preserveAspectRatio="xMidYMid meet">

<g transform="translate(0.000000,512.000000) scale(0.100000,-0.100000)"
fill="#FFE400" stroke="#000000">
<path d="M2340 3869 c-727 -82 -1294 -543 -1371 -1115 -33 -250 44 -536 203
-749 113 -151 290 -303 461 -395 58 -31 76 -46 73 -59 -3 -9 -37 -119 -77
-246 -51 -166 -72 -247 -73 -290 l-1 -60 37 1 c47 1 146 62 447 273 l226 158
225 -5 c176 -3 251 -1 344 12 663 93 1184 499 1300 1014 129 573 -267 1145
-949 1371 -264 88 -573 121 -845 90z m-429 -869 c64 -12 89 -37 89 -89 0 -27
-7 -44 -26 -62 -22 -21 -37 -24 -114 -27 l-88 -4 -6 -51 c-4 -28 -4 -146 0
-262 7 -227 2 -272 -39 -300 -27 -19 -77 -19 -104 0 -41 29 -46 71 -38 311 4
123 4 241 0 262 l-6 40 -89 4 c-77 4 -93 7 -115 28 -35 33 -34 88 1 123 l26
27 202 3 c110 1 213 3 227 5 15 1 51 -3 80 -8z m380 -23 c21 -14 40 -39 51
-67 9 -25 64 -164 121 -310 106 -267 123 -325 112 -361 -8 -24 -55 -49 -93
-49 -42 0 -69 26 -95 95 l-23 60 -144 0 -143 0 -19 -54 c-10 -30 -28 -65 -40
-78 -38 -40 -132 -24 -145 24 -11 48 8 115 96 335 49 123 102 259 118 303 23
63 35 84 62 102 44 30 98 30 142 0z m496 -1 l28 -24 3 -290 3 -290 120 -4
c113 -3 122 -5 140 -27 40 -49 15 -113 -51 -131 -49 -13 -341 -6 -369 10 -38
20 -38 23 -33 488 l2 243 25 24 c33 34 93 34 132 1z m504 -2 c22 -23 24 -35
27 -141 l4 -115 137 136 c118 116 142 136 169 136 40 0 80 -35 88 -78 6 -31 1
-38 -111 -152 l-118 -119 122 -160 c93 -124 121 -168 121 -192 0 -41 -15 -66
-51 -85 -59 -30 -79 -16 -200 144 -138 181 -125 168 -144 152 -12 -10 -15 -35
-15 -121 0 -59 -4 -119 -10 -133 -22 -60 -123 -71 -158 -18 -17 26 -19 140
-12 710 0 7 11 24 25 37 34 35 93 34 126 -1z"/>
<path d="M2216 2752 c-3 -6 -21 -54 -40 -109 -19 -54 -38 -106 -41 -115 -7
-16 1 -18 84 -18 50 0 91 3 91 6 0 7 -81 238 -85 242 -2 2 -6 -1 -9 -6z"/>
</g>
</svg>
